<svg aria-hidden="true" style="width:0;height:0;position:absolute;overflow:hidden" xmlns="http://www.w3.org/2000/svg"><defs><symbol id="arrow" viewBox="0 0 32 32"><path stroke-linejoin="round" stroke-linecap="round" stroke-width="2.667" d="M6.667 16h18.667M16 25.333 25.333 16 16 6.667"/></symbol><symbol id="cross" viewBox="0 0 32 32"><path d="M29.835 0 16 13.882 2.165 0 .046 2.112 13.888 16 .046 29.889 2.165 32 16 18.119 29.835 32l2.119-2.111L18.112 16 31.954 2.112z"/></symbol><symbol id="search" fill="none" xmlns="http://www.w3.org/2000/svg" viewBox="0 0 12 12"><path d="M5.5 9.5a4 4 0 1 0 0-8 4 4 0 0 0 0 8ZM10.5 10.5 8.325 8.325" stroke="#fff" stroke-linecap="round" stroke-linejoin="round"/></symbol><symbol id="heart" viewBox="0 0 32 32"><path d="m16 30.583-2.24-2.24C5.44 20.983 0 16.023 0 9.943c0-4.96 3.84-8.8 8.8-8.8 2.72 0 5.44 1.28 7.2 3.36 1.76-2.08 4.48-3.36 7.2-3.36 4.96 0 8.8 3.84 8.8 8.8 0 6.08-5.44 11.04-13.76 18.4L16 30.583z"/></symbol><symbol id="logo" viewBox="0 0 32 32"><path stroke-linejoin="round" stroke-linecap="round" stroke-width="2.667" d="M26.427 2.667H5.574a2.907 2.907 0 0 0-2.907 2.907v20.853a2.907 2.907 0 0 0 2.907 2.907h20.853a2.907 2.907 0 0 0 2.907-2.907V5.574a2.907 2.907 0 0 0-2.907-2.907zM9.333 2.667v26.667M22.667 2.667v26.667M2.667 16h26.667M2.667 9.333h6.667M2.667 22.667h6.667M22.667 22.667h6.667M22.667 9.333h6.667"/></symbol><symbol id="youtube" viewBox="0 0 32 32"><path fill="red" style="fill:var(--color1,red)" d="M9.993 13.496a1.284 1.284 0 0 0-.904-.904c-.793-.216-3.985-.216-3.985-.216s-3.192.007-3.985.223a1.284 1.284 0 0 0-.904.904c-.24 1.409-.333 3.556.007 4.909.119.441.464.785.904.904.793.216 3.985.216 3.985.216s3.192 0 3.985-.216c.441-.119.785-.464.904-.904.253-1.411.331-3.557-.007-4.915z"/><path fill="#fff" style="fill:var(--color2,#fff)" d="m4.088 17.487 2.648-1.534-2.648-1.534z"/><path fill="#282828" style="fill:var(--color3,#282828)" d="M30.702 14.452c.347 0 .609.066.793.19s.315.321.393.59c.079.269.111.636.111 1.108v.767h-1.684v.236l.026.649c.02.144.052.249.105.315s.138.098.249.098c.151 0 .256-.059.308-.177.059-.118.085-.315.092-.583l.872.052c.007.039.007.092.007.157 0 .413-.111.721-.341.924s-.544.308-.957.308c-.498 0-.845-.157-1.042-.465s-.301-.793-.301-1.442v-.793c.022-1.114.218-1.93 1.37-1.933zm-12.117.086v3.283c0 .197.02.341.066.426.093.182.334.136.465.046a.518.518 0 0 0 .177-.203v-3.552h1.003v4.476h-.786l-.085-.55h-.02c-.216.413-.537.623-.963.623-.656-.002-.816-.474-.854-.954l-.003-.034a4.043 4.043 0 0 1-.008-.218v-3.342h1.009zm5.171 0v3.283c0 .197.02.341.066.426.093.182.334.136.465.046a.518.518 0 0 0 .177-.203v-3.552h1.003v4.476h-.786l-.085-.55h-.02c-.216.413-.537.623-.963.623-.656-.002-.816-.474-.854-.954l-.003-.034a4.043 4.043 0 0 1-.008-.218v-3.342h1.009zm-8.081-.086c.328 0 .596.066.793.203s.347.347.439.636c.092.288.138.675.138 1.153v.649c0 .478-.046.858-.138 1.147s-.236.498-.439.636c-.203.131-.478.203-.819.203-.354.007-.629-.066-.832-.197-.203-.138-.347-.347-.433-.636s-.125-.668-.125-1.147v-.649c0-.478.046-.872.144-1.16.098-.295.249-.505.459-.636s.478-.203.813-.203zm11.364-1.795v2.359h.007c.092-.17.21-.308.374-.413a.918.918 0 0 1 .518-.157c.242 0 .426.066.564.19.138.131.236.334.295.616.057.273.09.651.092 1.127v.754c0 .662-.085 1.153-.242 1.468-.164.315-.413.472-.754.472-.19 0-.36-.046-.518-.131a.915.915 0 0 1-.334-.337l-.013-.023h-.02l-.105.426h-.832v-6.35h.97zm-4.011.229v.813h-.996v5.315h-.983v-5.315h-1.003v-.813h2.982zm-10.807 0 .001.002c.01.043.142.632.288 1.318l.012.054.017.082.012.055.006.028.012.056.006.028.012.056.017.081c.098.475.192.952.248 1.294h.026c.054-.307.132-.699.215-1.099l.022-.105.033-.157.017-.081c.16-.755.32-1.46.35-1.59l.002-.008.003-.013h1.003l-1.16 4.135v1.986h-.99v-1.979h-.007l-1.147-4.142h1.003zm3.434 2.261c-.138 0-.229.072-.288.223s-.085.38-.085.701v1.396c0 .328.026.57.079.714s.151.216.295.216c.138 0 .236-.072.295-.216s.085-.387.085-.714v-1.396c0-.321-.026-.557-.085-.701-.059-.151-.157-.223-.295-.223zm11.561.131a.607.607 0 0 0-.171.278l-.006.023v2.543a.443.443 0 0 0 .4.236c.105 0 .19-.039.256-.118s.111-.21.138-.393c.025-.176.038-.419.039-.728v-.622c0-.354-.013-.623-.033-.813-.026-.19-.059-.328-.118-.406-.114-.164-.36-.162-.505 0zm3.467-.151c-.111.007-.19.039-.236.098-.052.066-.085.164-.105.308a9.904 9.904 0 0 0-.026.655v.322h.734v-.284.005c0 .099-.002-.058-.007-.25l-.001-.026a5.912 5.912 0 0 0-.019-.422c-.02-.151-.052-.256-.105-.315s-.131-.092-.236-.092z"/></symbol></defs></svg>