<svg aria-hidden="true" style="position: absolute; width: 0; height: 0; overflow: hidden;" version="1.1"
    xmlns="http://www.w3.org/2000/svg" xmlns:xlink="http://www.w3.org/1999/xlink">
    <defs>

        <!-- Стрілочка для пагінації-->
        <symbol id="arrow" viewBox="0 0 32 32">
            <path stroke-linejoin="round" stroke-linecap="round" stroke-miterlimit="4" stroke-width="2.6667"
                d="M6.667 16h18.667"></path>
            <path stroke-linejoin="round" stroke-linecap="round" stroke-miterlimit="4" stroke-width="2.6667"
                d="M16 25.333l9.333-9.333-9.333-9.333"></path>
        </symbol>

        <!-- Хрестик -->
        <symbol id="cross" viewBox="0 0 32 32">
            <path
                d="M29.835 0l-13.835 13.882-13.835-13.882-2.119 2.112 13.842 13.888-13.842 13.889 2.119 2.111 13.835-13.881 13.835 13.881 2.119-2.111-13.842-13.889 13.842-13.888z">
            </path>
        </symbol>

        <!-- Лупа -->
        <symbol id="search" fill="none" xmlns="http://www.w3.org/2000/svg" viewBox="0 0 12 12" id="search">
            <path
                d="M5.5 9.5C7.70914 9.5 9.5 7.70914 9.5 5.5C9.5 3.29086 7.70914 1.5 5.5 1.5C3.29086 1.5 1.5 3.29086 1.5 5.5C1.5 7.70914 3.29086 9.5 5.5 9.5Z"
                stroke="white" stroke-linecap="round" stroke-linejoin="round"></path>
            <path d="M10.5 10.5002L8.32495 8.3252" stroke="white" stroke-linecap="round" stroke-linejoin="round"></path>
        </symbol>

        <!-- Сердце для футеру -->
        <symbol id="heart" viewBox="0 0 32 32">
            <path
                d="M16 30.583l-2.24-2.24c-8.32-7.36-13.76-12.32-13.76-18.4 0-4.96 3.84-8.8 8.8-8.8 2.72 0 5.44 1.28 7.2 3.36 1.76-2.080 4.48-3.36 7.2-3.36 4.96 0 8.8 3.84 8.8 8.8 0 6.080-5.44 11.040-13.76 18.4l-2.24 2.24z">
            </path>
        </symbol>

        <!-- Лого -->
        <symbol id="logo" viewBox="0 0 32 32">
            <path stroke-linejoin="round" stroke-linecap="round" stroke-miterlimit="4" stroke-width="2.6667"
                d="M26.427 2.667h-20.853c-1.605 0-2.907 1.301-2.907 2.907v20.853c0 1.605 1.301 2.907 2.907 2.907h20.853c1.605 0 2.907-1.301 2.907-2.907v-20.853c0-1.605-1.301-2.907-2.907-2.907z">
            </path>
            <path stroke-linejoin="round" stroke-linecap="round" stroke-miterlimit="4" stroke-width="2.6667"
                d="M9.333 2.667v26.667"></path>
            <path stroke-linejoin="round" stroke-linecap="round" stroke-miterlimit="4" stroke-width="2.6667"
                d="M22.667 2.667v26.667"></path>
            <path stroke-linejoin="round" stroke-linecap="round" stroke-miterlimit="4" stroke-width="2.6667"
                d="M2.667 16h26.667"></path>
            <path stroke-linejoin="round" stroke-linecap="round" stroke-miterlimit="4" stroke-width="2.6667"
                d="M2.667 9.333h6.667"></path>
            <path stroke-linejoin="round" stroke-linecap="round" stroke-miterlimit="4" stroke-width="2.6667"
                d="M2.667 22.667h6.667"></path>
            <path stroke-linejoin="round" stroke-linecap="round" stroke-miterlimit="4" stroke-width="2.6667"
                d="M22.667 22.667h6.667"></path>
            <path stroke-linejoin="round" stroke-linecap="round" stroke-miterlimit="4" stroke-width="2.6667"
                d="M22.667 9.333h6.667"></path>
        </symbol>

<!-- trailer btn -->

<svg id="youtube" xmlns="http://www.w3.org/2000/svg" viewBox="0 0 612 612" style="enable-background:new 0 0 612 612" xml:space="preserve">
  <path d="M489.6 81.6H122.4C54.917 81.6 0 136.516 0 204v204c0 67.482 54.917 122.4 122.4 122.4h367.2c67.483 0 122.4-54.918 122.4-122.4V204c0-67.484-54.917-122.4-122.4-122.4zM584.8 408c0 52.496-42.704 95.199-95.2 95.199H122.4c-52.496 0-95.2-42.703-95.2-95.199V204c0-52.496 42.704-95.2 95.2-95.2h367.2c52.496 0 95.2 42.704 95.2 95.2v204zm-367.2 13.068 199.308-115.055L217.6 190.93v230.138zm27.2-183.027 117.708 67.973L244.8 373.959V238.041z"/>
</svg>
    </defs>
</svg>